<mxfile host="app.diagrams.net" agent="Mozilla/5.0 (Windows NT 10.0; Win64; x64) AppleWebKit/537.36 (KHTML, like Gecko) Chrome/130.0.0.0 Safari/537.36" version="24.8.3">
  <diagram name="Page-1" id="ADdnZNFPhiC1YL75WqlX">
    <mxGraphModel dx="1050" dy="557" grid="1" gridSize="10" guides="1" tooltips="1" connect="1" arrows="1" fold="1" page="1" pageScale="1" pageWidth="850" pageHeight="1100" math="0" shadow="0">
      <root>
        <mxCell id="0" />
        <mxCell id="1" parent="0" />
        <mxCell id="4dg53_Ev0BzCD0iM978z-1" value="" style="rounded=0;whiteSpace=wrap;html=1;" vertex="1" parent="1">
          <mxGeometry x="220" y="20" width="720" height="650" as="geometry" />
        </mxCell>
        <mxCell id="4dg53_Ev0BzCD0iM978z-2" style="edgeStyle=orthogonalEdgeStyle;rounded=0;orthogonalLoop=1;jettySize=auto;html=1;curved=0;" edge="1" parent="1">
          <mxGeometry relative="1" as="geometry">
            <Array as="points">
              <mxPoint x="510.5" y="340" />
              <mxPoint x="510.5" y="340" />
            </Array>
            <mxPoint x="420" y="340" as="sourcePoint" />
            <mxPoint x="660" y="340" as="targetPoint" />
          </mxGeometry>
        </mxCell>
        <mxCell id="4dg53_Ev0BzCD0iM978z-3" value="Frontend" style="shape=umlLifeline;perimeter=lifelinePerimeter;whiteSpace=wrap;html=1;container=1;dropTarget=0;collapsible=0;recursiveResize=0;outlineConnect=0;portConstraint=eastwest;newEdgeStyle={&quot;curved&quot;:0,&quot;rounded&quot;:0};" vertex="1" parent="1">
          <mxGeometry x="370" y="110" width="100" height="550" as="geometry" />
        </mxCell>
        <mxCell id="4dg53_Ev0BzCD0iM978z-4" style="edgeStyle=orthogonalEdgeStyle;rounded=0;orthogonalLoop=1;jettySize=auto;html=1;curved=0;" edge="1" parent="1">
          <mxGeometry relative="1" as="geometry">
            <Array as="points">
              <mxPoint x="730.5" y="459" />
              <mxPoint x="730.5" y="459" />
            </Array>
            <mxPoint x="660" y="459" as="sourcePoint" />
            <mxPoint x="870" y="459" as="targetPoint" />
          </mxGeometry>
        </mxCell>
        <mxCell id="4dg53_Ev0BzCD0iM978z-5" value="Backend" style="shape=umlLifeline;perimeter=lifelinePerimeter;whiteSpace=wrap;html=1;container=1;dropTarget=0;collapsible=0;recursiveResize=0;outlineConnect=0;portConstraint=eastwest;newEdgeStyle={&quot;curved&quot;:0,&quot;rounded&quot;:0};" vertex="1" parent="1">
          <mxGeometry x="610" y="110" width="100" height="550" as="geometry" />
        </mxCell>
        <mxCell id="4dg53_Ev0BzCD0iM978z-6" value="Database" style="shape=umlLifeline;perimeter=lifelinePerimeter;whiteSpace=wrap;html=1;container=1;dropTarget=0;collapsible=0;recursiveResize=0;outlineConnect=0;portConstraint=eastwest;newEdgeStyle={&quot;curved&quot;:0,&quot;rounded&quot;:0};" vertex="1" parent="1">
          <mxGeometry x="820" y="110" width="100" height="550" as="geometry" />
        </mxCell>
        <mxCell id="4dg53_Ev0BzCD0iM978z-7" value="User" style="shape=umlActor;verticalLabelPosition=bottom;verticalAlign=top;html=1;" vertex="1" parent="1">
          <mxGeometry x="250" y="160" width="30" height="60" as="geometry" />
        </mxCell>
        <mxCell id="4dg53_Ev0BzCD0iM978z-8" style="rounded=0;orthogonalLoop=1;jettySize=auto;html=1;" edge="1" parent="1" source="4dg53_Ev0BzCD0iM978z-19" target="4dg53_Ev0BzCD0iM978z-3">
          <mxGeometry relative="1" as="geometry">
            <mxPoint x="320" y="225" as="sourcePoint" />
          </mxGeometry>
        </mxCell>
        <mxCell id="4dg53_Ev0BzCD0iM978z-9" value="Access Token, IsDisable=true" style="html=1;whiteSpace=wrap;" vertex="1" parent="1">
          <mxGeometry x="490" y="300" width="110" height="35" as="geometry" />
        </mxCell>
        <mxCell id="4dg53_Ev0BzCD0iM978z-10" value="Authenticate Token" style="html=1;whiteSpace=wrap;" vertex="1" parent="1">
          <mxGeometry x="500" y="370" width="110" height="30" as="geometry" />
        </mxCell>
        <mxCell id="4dg53_Ev0BzCD0iM978z-11" value="filter user and update isDisable field true" style="html=1;whiteSpace=wrap;" vertex="1" parent="1">
          <mxGeometry x="700" y="410" width="150" height="45" as="geometry" />
        </mxCell>
        <mxCell id="4dg53_Ev0BzCD0iM978z-12" style="edgeStyle=orthogonalEdgeStyle;rounded=0;orthogonalLoop=1;jettySize=auto;html=1;curved=0;" edge="1" parent="1">
          <mxGeometry relative="1" as="geometry">
            <mxPoint x="660" y="520" as="sourcePoint" />
            <mxPoint x="420" y="520" as="targetPoint" />
            <Array as="points">
              <mxPoint x="590.5" y="520" />
              <mxPoint x="590.5" y="520" />
            </Array>
          </mxGeometry>
        </mxCell>
        <mxCell id="4dg53_Ev0BzCD0iM978z-13" value="show alert" style="html=1;whiteSpace=wrap;" vertex="1" parent="1">
          <mxGeometry x="260" y="560" width="110" height="40" as="geometry" />
        </mxCell>
        <mxCell id="4dg53_Ev0BzCD0iM978z-14" style="edgeStyle=orthogonalEdgeStyle;rounded=0;orthogonalLoop=1;jettySize=auto;html=1;curved=0;" edge="1" parent="1">
          <mxGeometry relative="1" as="geometry">
            <mxPoint x="419.5" y="580" as="sourcePoint" />
            <mxPoint x="419.5" y="600" as="targetPoint" />
            <Array as="points">
              <mxPoint x="380" y="570" />
            </Array>
          </mxGeometry>
        </mxCell>
        <mxCell id="4dg53_Ev0BzCD0iM978z-15" value="" style="image;aspect=fixed;html=1;points=[];align=center;fontSize=12;image=img/lib/azure2/general/Browser.svg;" vertex="1" parent="1">
          <mxGeometry x="387.5" y="50" width="65" height="52" as="geometry" />
        </mxCell>
        <mxCell id="4dg53_Ev0BzCD0iM978z-16" value="" style="image;aspect=fixed;perimeter=ellipsePerimeter;html=1;align=center;shadow=0;dashed=0;fontColor=#4277BB;labelBackgroundColor=default;fontSize=12;spacingTop=3;image=img/lib/ibm/infrastructure/mobile_backend.svg;" vertex="1" parent="1">
          <mxGeometry x="630" y="40" width="62" height="62" as="geometry" />
        </mxCell>
        <mxCell id="4dg53_Ev0BzCD0iM978z-17" value="" style="sketch=0;points=[[0,0,0],[0.25,0,0],[0.5,0,0],[0.75,0,0],[1,0,0],[0,1,0],[0.25,1,0],[0.5,1,0],[0.75,1,0],[1,1,0],[0,0.25,0],[0,0.5,0],[0,0.75,0],[1,0.25,0],[1,0.5,0],[1,0.75,0]];outlineConnect=0;fontColor=#232F3E;fillColor=#C925D1;strokeColor=#ffffff;dashed=0;verticalLabelPosition=bottom;verticalAlign=top;align=center;html=1;fontSize=12;fontStyle=0;aspect=fixed;shape=mxgraph.aws4.resourceIcon;resIcon=mxgraph.aws4.documentdb_with_mongodb_compatibility;" vertex="1" parent="1">
          <mxGeometry x="830" y="33" width="69" height="69" as="geometry" />
        </mxCell>
        <mxCell id="4dg53_Ev0BzCD0iM978z-18" value="response" style="html=1;whiteSpace=wrap;" vertex="1" parent="1">
          <mxGeometry x="490" y="480" width="110" height="30" as="geometry" />
        </mxCell>
        <mxCell id="4dg53_Ev0BzCD0iM978z-19" value="click disable" style="html=1;whiteSpace=wrap;" vertex="1" parent="1">
          <mxGeometry x="290" y="180" width="90" height="30" as="geometry" />
        </mxCell>
        <mxCell id="4dg53_Ev0BzCD0iM978z-20" style="edgeStyle=orthogonalEdgeStyle;rounded=0;orthogonalLoop=1;jettySize=auto;html=1;curved=0;" edge="1" parent="1">
          <mxGeometry relative="1" as="geometry">
            <mxPoint x="659.5" y="370" as="sourcePoint" />
            <mxPoint x="659.5" y="390" as="targetPoint" />
            <Array as="points">
              <mxPoint x="620" y="360" />
            </Array>
          </mxGeometry>
        </mxCell>
        <mxCell id="4dg53_Ev0BzCD0iM978z-21" style="edgeStyle=orthogonalEdgeStyle;rounded=0;orthogonalLoop=1;jettySize=auto;html=1;curved=0;" edge="1" parent="1">
          <mxGeometry relative="1" as="geometry">
            <mxPoint x="419.5" y="260" as="sourcePoint" />
            <mxPoint x="419.5" y="280" as="targetPoint" />
            <Array as="points">
              <mxPoint x="380" y="250" />
            </Array>
          </mxGeometry>
        </mxCell>
        <mxCell id="4dg53_Ev0BzCD0iM978z-22" value="confirm disable" style="html=1;whiteSpace=wrap;" vertex="1" parent="1">
          <mxGeometry x="280" y="250" width="90" height="30" as="geometry" />
        </mxCell>
      </root>
    </mxGraphModel>
  </diagram>
</mxfile>
